<?xml version="1.0" encoding="utf-8"?>
<!-- Generator: Adobe Illustrator 16.0.0, SVG Export Plug-In . SVG Version: 6.00 Build 0)  -->
<!DOCTYPE svg PUBLIC "-//W3C//DTD SVG 1.1//EN" "http://www.w3.org/Graphics/SVG/1.1/DTD/svg11.dtd">
<svg version="1.1" id="Capa_1" xmlns="http://www.w3.org/2000/svg" xmlns:xlink="http://www.w3.org/1999/xlink" x="0px" y="0px"
	 width="890.604px" height="503.729px" viewBox="0 0 890.604 503.729" enable-background="new 0 0 890.604 503.729"
	 xml:space="preserve">
<g>
	<path fill="#010028" d="M76.042,219.065c0-92.197,65.993-169.854,155.853-193.235c7.947-2.068,16.08-3.711,24.369-4.902
		c10.521-1.511,21.293-2.295,32.262-2.295c0.479,0,0.958,0.014,1.438,0.017c-22.654-7.769-47.101-12.017-72.602-12.017
		C100.012,6.633,4.879,96.37,4.879,207.066c0,110.235,94.346,199.671,211.022,200.417C134.315,379.491,76.042,305.7,76.042,219.065z
		"/>
</g>
<g>
	<path fill="#A40001" d="M213.36,119.279c73.211-44.471,165.202-32.225,225.067,24.175c5.294,4.987,10.337,10.32,15.095,15.988
		c6.034,7.194,11.606,14.932,16.647,23.191c0.221,0.362,0.429,0.728,0.646,1.091c-4.243-20.808-12.104-41.268-23.825-60.474
		C393.061,34.868,278.085,6.502,190.184,59.895c-87.533,53.17-115.192,167.363-62.161,255.6
		C112.752,240.545,144.569,161.064,213.36,119.279z"/>
</g>
<text transform="matrix(1.0023 0 0 1 140.405 380.3613)" fill="#A40001" font-family="'BritannicBold'" font-size="400">c</text>
<text transform="matrix(0.9564 0 0 1 331.968 380.3613)" fill="#010028" font-family="'BritannicBold'" font-size="310">s</text>
<text transform="matrix(0.9564 0 0 1 473.4065 380.3613)" fill="#010028" font-family="'BritannicBold'" font-size="90"> Company</text>
<text transform="matrix(0.9564 0 0 1 33.9045 447.3623)" fill="#010028" font-family="'BritannicBold'" font-size="60">C</text>
<text transform="matrix(0.9564 0 0 1 68.2839 447.3623)" fill="#010028" font-family="'BritannicBold'" font-size="50">S</text>
<text transform="matrix(0.9564 0 0 1 94.5295 447.3623)" fill="#010028" font-family="'BritannicBold'" font-size="60"> Servicios Administrativos, S.A.</text>
<text transform="matrix(1.0023 0 0 1 140.405 500.3623)" fill="#A40001" font-family="'BritannicBold'" font-size="40" letter-spacing="21.95">   </text>
<text transform="matrix(1 0 0 1 140.0969 548.3623)" fill="#A40001" font-family="'BritannicBold'" font-size="40" letter-spacing="24">   </text>
<text transform="matrix(-1.0021 -0.0209 0.0209 -0.9998 359.2219 181.6748)" fill="#010028" font-family="'BritannicBold'" font-size="100">‘</text>
<text transform="matrix(1 0 0 1 33.9045 483.3643)" fill="#A40001" font-family="'BodoniMT-BoldItalic'" font-size="32">Asesoría Administrativa, Financiera y Servicios Contables</text>
</svg>
